<?xml version="1.0" encoding="UTF-8"?>
<svg width="176px" height="54px" viewBox="0 0 176 54" version="1.1" xmlns="http://www.w3.org/2000/svg" xmlns:xlink="http://www.w3.org/1999/xlink">
    <title>Symbol White</title>
    <g id="Page-1" stroke="none" stroke-width="1" fill="none" fill-rule="evenodd">
        <path d="M5.25656,50.36001 L28.6892138,8.74103791 C28.740705,8.64955955 28.7950972,8.55991859 28.8523855,8.47210961 C28.9096754,8.38430072 28.9697272,8.29851971 29.0325444,8.21476584 C29.0953599,8.13103179 29.1608165,8.04949621 29.2289077,7.97015782 C29.2969774,7.89081935 29.3675311,7.81385897 29.440567,7.73927769 C29.5136245,7.66471838 29.5889955,7.59269683 29.66668,7.52321446 C29.7443678,7.45371007 29.8242118,7.38691566 29.9062139,7.32283001 C29.9881977,7.25872234 30.0721707,7.19746499 30.1581361,7.13905437 C30.2440817,7.08062173 30.3318096,7.02514442 30.4213181,6.97262124 C30.5108531,6.92012126 30.6019784,6.87069133 30.6947007,6.82433389 C30.7874031,6.77797649 30.8815138,6.73479777 30.9770312,6.69479779 C31.0725253,6.6547978 31.169211,6.61805096 31.2670865,6.58455732 C31.3649406,6.55108564 31.4637726,6.52094161 31.5635876,6.49412519 C31.663401,6.46733076 31.7639757,6.44391768 31.8653082,6.42388594 C31.9666242,6.40387496 32.0684813,6.38728804 32.1708829,6.3741252 C32.2732812,6.36098433 32.3759923,6.35131026 32.4790194,6.34510177 C32.5820217,6.33889327 32.6851333,6.33616378 32.7883457,6.33679 C32.8915384,6.3376567 32.994592,6.34188033 33.0975132,6.34958175 C33.2004344,6.35728316 33.3030015,6.36844039 33.4052111,6.38305343 C33.5074026,6.39766768 33.6090214,6.41571455 33.7100644,6.43719771 C33.811109,6.45868086 33.9113377,6.48355512 34.0107572,6.51182173 C34.1101966,6.54006757 34.2086133,6.57163007 34.306004,6.60651045 C34.4034227,6.64141156 34.4995971,6.67954511 34.5945286,6.72090985 C34.6894618,6.76229656 34.7829651,6.80684001 34.875042,6.85454264 C34.9670974,6.90222212 35.0575276,6.95296302 35.1463295,7.00676552 C35.2351082,7.06056801 35.322065,7.11729413 35.407198,7.17694256 C35.4923492,7.23661049 35.5754683,7.29908608 35.6565536,7.36436556 C35.737662,7.42964517 35.816576,7.49758211 35.893304,7.568173 C35.9700303,7.63876621 36.0443918,7.71187416 36.1163819,7.78750152 C36.1883968,7.86312897 36.2578963,7.94109043 36.3248854,8.02138958 C36.3918496,8.10171052 36.4561661,8.1841959 36.517838,8.26884542 C36.5794223,8.35349644 36.6382645,8.44013088 36.6943678,8.52874905 C36.7504678,8.61736845 36.8036487,8.7077895 36.8539087,8.80001374 L56.5615483,44.9747305 C56.6124355,45.067958 56.6662352,45.1593709 56.7229641,45.2489687 C56.7799015,45.3387854 56.8395529,45.426466 56.901905,45.5120101 C56.9644723,45.5975578 57.0297436,45.6808638 57.0977322,45.7619299 C57.1657241,45.8429987 57.2363175,45.921721 57.3095223,45.9980912 C57.3825119,46.0744622 57.4580119,46.1481703 57.5360092,46.2192093 C57.6140114,46.2904639 57.6941997,46.3588364 57.7765724,46.4243319 C57.8589551,46.4900388 57.9434179,46.5528599 58.0299675,46.6128063 C58.1163053,46.6727528 58.2046256,46.7296087 58.2949335,46.7833699 C58.3850311,46.8373424 58.4768962,46.8881144 58.5705385,46.9356902 C58.6639674,46.9832617 58.7588625,47.0275288 58.8552123,47.068492 C58.9517739,47.1096612 59.0494839,47.1474217 59.1483341,47.1817668 C59.2471877,47.2163277 59.3470838,47.2473658 59.4480192,47.274887 C59.5489662,47.3026238 59.6506314,47.3267291 59.753033,47.3472123 C59.8554345,47.3679058 59.9584567,47.3850793 60.0621044,47.3987309 C60.1657588,47.4123825 60.2697226,47.4224066 60.3739975,47.4288075 C60.4780655,47.4354242 60.5823454,47.438409 60.6868271,47.4377685 C60.7913139,47.4371279 60.895693,47.4329695 60.9999679,47.4252901 C61.104041,47.417608 61.2077929,47.4063042 61.3112387,47.3913702 C61.4146812,47.3766506 61.5174982,47.3583066 61.6196863,47.336328 C61.7220863,47.3145699 61.8235496,47.2892936 61.9240712,47.2604892 C62.0245929,47.2316892 62.1240703,47.1994774 62.2225102,47.1638476 C62.3211585,47.1284327 62.4184499,47.0896086 62.5143793,47.0473684 C62.6103153,47.0051281 62.7047901,46.9596873 62.7978036,46.9110504 C62.8906086,46.8621979 62.9818531,46.8103561 63.0715304,46.7555252 C63.1612077,46.7007031 63.2489042,46.642784 63.3346214,46.5817687 C63.4205405,46.5209695 63.5042735,46.4572899 63.5858188,46.3907268 C63.6675743,46.3239537 63.7470311,46.2546229 63.824196,46.1827303 C63.901154,46.110626 63.9758117,46.0359569 64.0481824,45.9587314 C64.1203413,45.8817145 64.1899996,45.8022508 64.2571525,45.7203324 C64.3243104,45.638414 64.3886451,45.5542548 64.4501665,45.4678504 C64.5116928,45.381664 64.5703993,45.2933468 64.6262941,45.2028923 C64.6819754,45.1126535 64.7347442,45.0205952 64.7845839,44.9267302 L83.7964837,9.0733585 C83.8461232,8.97942774 83.8988804,8.88730985 83.9547785,8.79700595 C84.0106767,8.70670186 84.0693748,8.61840233 84.1309062,8.53210969 C84.1924259,8.44581692 84.2567622,8.36171051 84.3239168,8.27978915 C84.3908661,8.197891 84.4605195,8.11837071 84.5328852,8.04122952 C84.6050458,7.96408852 84.6797134,7.88949628 84.7568717,7.81745399 C84.8340415,7.74541176 84.9133891,7.67607827 84.9949294,7.60945348 C85.0766899,7.5428287 85.1604229,7.47906401 85.2461451,7.41815833 C85.3320675,7.35727214 85.4198698,7.29937413 85.5095422,7.24446203 C85.599006,7.18954997 85.6902521,7.13776286 85.7832673,7.08910197 C85.8762825,7.04041911 85.9707589,6.99496866 86.0666917,6.95275066 C86.1626277,6.91053142 86.2598148,6.87163004 86.3582513,6.83604655 C86.4566878,6.80048257 86.5562729,6.76831221 86.6569997,6.73953414 C86.7575164,6.71075603 86.8588771,6.68543257 86.9610652,6.6635661 C87.0632649,6.6417204 87.1660802,6.62338543 87.2695228,6.60855756 C87.3729619,6.59373091 87.4768215,6.58245649 87.5810997,6.5747331 C87.6851727,6.56699019 87.7894427,6.56280926 87.893931,6.56218915 C87.9984111,6.56159224 88.1027853,6.56454756 88.2070652,6.5710539 C88.3113451,6.57758222 88.4153138,6.58765057 88.5189582,6.60126142 C88.6224041,6.61489423 88.7254262,6.63203533 88.828038,6.65268597 C88.9304363,6.6733366 89.0321164,6.69746502 89.1330468,6.72507 C89.2339838,6.75267498 89.333875,6.78369427 89.4327269,6.81812664 C89.5315937,6.8525358 89.6291862,6.89029703 89.7255459,6.93140547 C89.8221124,6.97249428 89.9171002,7.01683513 90.0105291,7.06443035 C90.1039696,7.1120036 90.1958363,7.16272381 90.2861425,7.21658978 C90.3762335,7.27043489 90.4645538,7.32730871 90.5511034,7.38721348 C90.637653,7.44709633 90.7221175,7.50986974 90.8044969,7.57553385 C90.8868679,7.64119783 90.9670595,7.70960367 91.0450651,7.78074986 C91.1228488,7.85187421 91.1983456,7.92559241 91.2715553,8.00190103 C91.3445466,8.0781901 91.415044,8.15689855 91.483026,8.23802881 C91.5510079,8.31913975 91.6162842,8.40247716 91.6788465,8.48804584 C91.7414171,8.57361483 91.8011744,8.66122944 91.8581019,8.75089378 C91.9148307,8.84053611 91.9686388,8.93202538 92.019526,9.02535787 L111.546964,44.8691302 C111.598066,44.9629988 111.65218,45.0550491 111.709339,45.1452879 C111.766465,45.2353154 111.826537,45.3233196 111.889521,45.4092907 C111.952497,45.4952637 112.018204,45.5789981 112.086605,45.6604886 C112.155,45.741983 112.226022,45.8210223 112.299647,45.8976082 C112.373256,45.9741945 112.449281,46.0482218 112.527693,46.1196868 C112.606112,46.1909406 112.68682,46.259527 112.76982,46.3254492 C112.85282,46.3911569 112.937919,46.4540877 113.025092,46.5142472 C113.112055,46.5741936 113.200996,46.6310496 113.29193,46.6848107 C113.382865,46.7387854 113.475357,46.7895552 113.569411,46.8371311 C113.663673,46.8847026 113.759291,46.9289692 113.856283,46.9699315 C113.953465,47.0108929 114.051795,47.0484381 114.15128,47.0825671 C114.250754,47.1167049 114.35127,47.1474217 114.452846,47.1747319 C114.554415,47.2020351 114.656809,47.2258209 114.760039,47.2460892 C114.863071,47.2663575 114.966721,47.2830995 115.071006,47.2963285 C115.175279,47.3095552 115.279867,47.3191589 115.384769,47.3251311 C115.489456,47.3311024 115.594358,47.3334532 115.699475,47.3321678 C115.804377,47.3308885 115.909163,47.3260882 116.01386,47.3177678 C116.118554,47.3092378 116.222827,47.2971825 116.326687,47.2816115 C116.430761,47.2660392 116.534108,47.2468376 116.6367,47.2240071 C116.739312,47.2013968 116.841086,47.1752646 116.942033,47.1456106 C117.042968,47.1159565 117.14276,47.0828907 117.241408,47.0464113 C117.34026,47.0097175 117.437757,46.9698259 117.533897,46.9267284 C117.630051,46.8834215 117.724625,46.8369153 117.81764,46.7872109 C117.91066,46.7375048 118.002009,46.6845994 118.091677,46.6284918 C118.181357,46.5725977 118.269055,46.5136088 118.354761,46.4515295 C118.44049,46.3894484 118.524115,46.3245951 118.605655,46.2569684 C118.686992,46.1891313 118.766128,46.1186237 118.843089,46.0454483 C118.91984,45.9722773 118.994194,45.8965428 119.066139,45.8182506 C119.138093,45.7399562 119.207332,45.6592084 119.273858,45.5760093 C119.340392,45.4930229 119.404201,45.4077984 119.465317,45.320333 C119.526216,45.2328651 119.584196,45.1433685 119.639245,45.0518486 C119.694509,44.9605427 119.746654,44.8673147 119.795665,44.7721691 L138.273876,8.94340486 C138.322054,8.8497952 138.373256,8.75791161 138.427474,8.66775778 C138.481706,8.57760403 138.538842,8.48937886 138.598907,8.40308507 C138.65876,8.31679225 138.721435,8.23262113 138.786907,8.15057409 C138.852191,8.06852568 138.920082,7.98877102 138.990571,7.91131013 C139.061267,7.83387003 139.134264,7.75889321 139.209544,7.68638093 C139.285039,7.61386998 139.362728,7.54398105 139.442605,7.47671788 C139.522479,7.40945472 139.604445,7.3449747 139.688491,7.28327796 C139.77253,7.22156044 139.858467,7.16275555 139.946274,7.10686195 C140.034275,7.0509684 140.123946,6.99811443 140.215295,6.94830242 C140.30644,6.89846721 140.399245,6.85177895 140.493721,6.80823774 C140.587983,6.76469645 140.683608,6.72438641 140.780576,6.68731001 C140.877343,6.65023357 140.975354,6.6164726 141.074638,6.58602949 C141.173707,6.55558758 141.273694,6.5285368 141.374634,6.50487714 C141.475364,6.48119795 141.576833,6.46095259 141.679031,6.44414229 C141.78122,6.42735274 141.883827,6.41402999 141.986851,6.40417403 C142.089875,6.3942961 142.193112,6.38792891 142.296551,6.38507003 C142.399997,6.38219039 142.503443,6.38281905 142.606877,6.38695723 C142.710318,6.39107589 142.81345,6.39869063 142.916267,6.40980635 C143.019083,6.42089888 143.121482,6.43547041 143.22346,6.45351728 C143.325454,6.47156538 143.426805,6.49303755 143.527534,6.51793378 C143.628058,6.54283002 143.72764,6.57109663 143.826289,6.60273358 C143.92514,6.63437177 144.022735,6.66931561 144.119091,6.70756514 C144.215661,6.74581704 144.310867,6.78727701 144.40471,6.83194988 C144.498569,6.87664226 144.590844,6.92445112 144.681564,6.97537392 C144.772284,7.02631755 144.861233,7.08025916 144.948412,7.13719765 C145.035574,7.19415687 145.120882,7.25399816 145.204299,7.31671791 C145.287716,7.37943762 145.368955,7.44491005 145.448,7.51313393 C145.527036,7.58135777 145.603888,7.65218422 145.678556,7.72561443 C145.753009,7.79904326 145.825062,7.87490394 145.894715,7.95319735 C145.964385,8.03149071 146.031424,8.11205584 146.095864,8.19489407 C146.160305,8.27773107 146.221932,8.3626589 146.280753,8.44967678 C146.339767,8.53669577 146.395859,8.62560321 146.449046,8.71639798 L170.74339,50.2000098" id="Symbol-White" stroke="#FFFFFF" stroke-width="12"></path>
    </g>
</svg>